<svg version="1.1" id="Layer_1" xmlns="http://www.w3.org/2000/svg" xmlns:xlink="http://www.w3.org/1999/xlink" x="0px" y="0px"
	 width="100%" viewBox="0 0 1024 1024" enable-background="new 0 0 1024 1024" xml:space="preserve">
<path fill="#000000" opacity="1.000000" stroke="none" 
	d="
M62.554417,762.287354 
	C55.810806,740.430054 51.374519,718.510254 48.535191,696.219971 
	C45.945438,675.888916 44.628216,655.475769 44.981613,635.023621 
	C45.850243,584.753113 53.697750,535.526978 68.150055,487.351410 
	C88.031914,421.076874 118.468170,359.910339 157.387375,302.861694 
	C185.362045,261.855835 217.224762,224.127441 253.327103,190.023727 
	C301.749054,144.282410 355.544525,106.271812 415.708588,77.478325 
	C459.742676,56.404358 505.700378,41.129253 553.850891,32.908443 
	C575.456543,29.219681 597.249695,27.156166 619.240417,26.483555 
	C673.083435,24.836714 724.855530,34.087364 774.457764,54.859619 
	C819.835938,73.862968 859.042603,101.679588 891.843262,138.556259 
	C935.012695,187.090363 961.302185,243.666275 973.476685,307.149200 
	C977.234741,326.745331 979.432800,346.481995 980.573059,366.424805 
	C981.345032,379.928009 981.741638,393.417786 981.154480,406.862793 
	C979.000244,456.192841 970.872864,504.559601 956.241699,551.767090 
	C933.163391,626.229187 898.426392,694.903320 852.628723,757.889343 
	C800.365906,829.766907 736.806458,889.560791 660.045166,934.822388 
	C609.215393,964.793640 555.246887,987.022156 497.309204,998.960266 
	C475.997314,1003.351685 454.448639,1006.101746 432.680298,1007.554626 
	C409.492859,1009.102356 386.368347,1008.743103 363.378174,1006.176270 
	C286.556458,997.599182 217.822357,969.778748 159.957779,917.715576 
	C112.885132,875.362549 81.138313,823.109741 62.554417,762.287354 
M967.674133,350.448120 
	C967.370911,342.297241 965.910461,334.291626 964.745728,326.241608 
	C960.101379,294.144104 951.562683,263.120453 938.362061,233.514130 
	C911.622864,173.543213 871.354553,125.095306 815.395813,90.041840 
	C762.926819,57.174465 705.388977,41.269703 643.972168,38.477959 
	C623.017822,37.525463 602.080322,38.748486 581.198242,41.198551 
	C551.067505,44.733761 521.527344,50.939560 492.653900,60.128632 
	C402.713959,88.752327 325.219238,138.020660 257.250977,202.881546 
	C234.442413,224.647354 213.419998,248.092758 194.086761,272.993073 
	C144.632568,336.687866 106.254082,406.306396 81.921440,483.425201 
	C68.462425,526.081665 59.929230,569.713989 57.589897,614.326538 
	C55.847572,647.553772 57.112885,680.752441 63.115906,713.716431 
	C70.760712,755.695740 84.170067,795.503113 105.796455,832.318420 
	C135.665085,883.164673 176.686234,922.734863 228.012466,951.720215 
	C273.533081,977.426819 322.749725,990.859619 374.496277,995.495605 
	C393.551025,997.202698 412.690094,997.077881 431.863586,995.871155 
	C453.301971,994.521790 474.517426,991.837646 495.468689,987.383484 
	C579.515564,969.515198 653.806519,931.117859 721.120544,878.617004 
	C762.028076,846.711609 798.134766,809.822205 829.789307,768.734985 
	C883.169800,699.448120 923.429626,623.326599 947.754395,539.082031 
	C959.308838,499.065063 966.452454,458.302765 968.868652,416.664703 
	C970.135681,394.830444 969.705933,373.108521 967.674133,350.448120 
z"/>
<path fill="#000000" opacity="1.000000" stroke="none" 
	d="
M279.297302,349.130005 
	C282.079926,347.913116 284.505798,346.809845 286.991058,345.862427 
	C288.201904,345.400848 289.523651,345.230194 291.518951,344.755768 
	C290.673553,358.451447 285.399750,369.723297 276.344666,380.661499 
	C287.460663,377.271362 297.224274,373.614227 307.420532,371.144287 
	C304.787842,371.144287 302.155121,371.144287 299.519714,371.144287 
	C301.645752,344.438446 326.520264,332.147919 345.683258,334.354462 
	C345.819122,345.570557 330.130646,362.275421 312.382355,370.145325 
	C356.995117,362.800446 400.476135,365.440430 442.586456,384.867035 
	C439.743805,382.240936 441.014526,380.845123 443.130432,379.470490 
	C459.904724,368.572266 476.474426,368.033386 494.298157,383.125641 
	C487.360504,391.566467 465.540955,393.893463 449.610413,388.107422 
	C467.257263,398.901855 484.126251,410.612183 496.601593,427.501953 
	C493.773346,427.017181 492.541168,424.569794 490.820129,422.792755 
	C471.220154,402.555206 447.471313,389.406036 420.661835,381.358307 
	C392.660248,372.952728 364.075806,371.672424 335.195953,374.279388 
	C308.956299,376.648010 283.751495,383.066284 260.242737,395.154144 
	C242.447678,404.304108 226.946609,416.589478 213.477234,431.403595 
	C212.835419,432.109497 211.877701,432.684784 212.012207,434.687897 
	C263.526154,403.231018 316.042938,408.624603 368.948090,429.333618 
	C364.163177,430.326813 359.532379,428.857300 354.891724,428.149384 
	C333.387665,424.868958 311.738495,424.336334 290.135193,425.480469 
	C235.142319,428.392914 193.421097,453.043854 167.227371,502.311798 
	C151.763489,531.397949 143.397552,562.851501 136.390320,594.741455 
	C131.407318,617.419067 129.325027,640.400757 130.370819,663.608276 
	C131.429077,687.092651 136.886276,709.561890 146.147476,731.181458 
	C148.145447,735.845520 151.088150,733.928650 153.906296,733.326355 
	C195.344849,724.470703 235.191483,729.064026 273.360962,747.502319 
	C278.531250,749.999878 283.627197,752.820923 287.462128,757.536743 
	C245.568573,741.812805 203.489563,741.141357 160.578522,754.067749 
	C163.274734,759.688477 166.222992,761.753662 172.165695,760.709045 
	C208.938751,754.245178 245.012299,757.194885 280.180176,769.987427 
	C285.986877,772.099609 291.467682,774.934937 296.851532,777.940369 
	C298.231934,778.710938 299.979095,779.268188 300.350250,781.655762 
	C262.728455,770.233276 225.110443,769.219727 186.864548,779.527893 
	C189.900681,783.463989 193.206436,784.815857 197.585037,784.714600 
	C229.313950,783.980469 260.711670,786.698547 291.505341,794.697998 
	C302.783051,797.627747 313.857391,801.311279 324.269318,806.636902 
	C327.196625,808.134277 329.624481,808.209839 332.678101,806.987976 
	C361.123627,795.605530 390.772217,789.434509 421.213715,786.563721 
	C441.643890,784.636963 462.031342,783.916687 482.444855,786.542542 
	C483.205933,786.640442 484.111725,786.792358 485.211884,785.214294 
	C465.541382,775.048401 444.531738,772.391235 423.043854,772.443420 
	C401.501465,772.495789 380.314087,775.252319 359.587921,783.013855 
	C359.405090,780.829956 360.710541,780.288757 361.943451,779.513672 
	C378.000763,769.420593 395.874573,764.327698 414.237396,760.760559 
	C428.620026,757.966614 443.180817,756.626953 457.857574,756.655518 
	C478.212250,756.695068 497.912476,760.417419 516.763367,767.929382 
	C533.251709,774.499939 549.081787,773.613953 565.080200,766.367676 
	C593.417969,753.532227 619.875854,737.447876 645.588928,720.115662 
	C699.350952,683.876587 749.231995,642.899048 794.600891,596.534668 
	C810.801514,579.978577 826.229980,562.715271 839.988342,544.024658 
	C840.718933,543.032104 841.206116,541.614807 842.755066,541.364868 
	C843.929321,542.824219 842.732056,543.883911 842.171326,544.960632 
	C826.700439,574.668030 807.377502,601.701355 785.266174,626.791321 
	C723.523193,696.851746 651.257263,753.873535 570.012207,799.571167 
	C520.813965,827.243652 469.653168,850.373657 414.176300,862.646240 
	C389.643463,868.073425 364.869110,871.434204 339.700500,872.571411 
	C317.662994,873.567078 295.768951,872.806030 273.934662,870.286316 
	C230.408020,865.263367 189.866516,852.544495 154.964935,824.605957 
	C120.024635,796.636292 100.399475,760.571411 94.485672,716.417969 
	C89.726707,680.886719 94.943420,646.454102 105.099098,612.621033 
	C117.243141,572.163879 135.571609,534.546753 159.209747,499.505310 
	C163.481674,493.172546 163.724762,485.343842 165.600433,478.165131 
	C173.296204,448.711029 182.949509,420.019165 200.013702,394.524597 
	C228.025650,352.673553 266.269989,324.438446 314.716095,310.293945 
	C322.107880,308.135803 324.151886,308.229553 328.646118,309.451599 
	C254.707458,347.667480 196.592224,400.476044 169.254089,483.239044 
	C178.364105,469.631989 186.590012,456.919586 195.248291,444.508881 
	C209.730301,423.750427 227.687988,406.597076 249.511658,393.624329 
	C251.707336,392.319153 253.393997,391.099579 253.732285,388.047424 
	C255.625793,370.962402 263.085205,357.353760 279.297302,349.130005 
z"/>
<path fill="#000000" opacity="1.000000" stroke="none" 
	d="
M427.829041,886.672302 
	C503.697845,868.022400 572.162781,834.082275 636.485474,791.240173 
	C687.183594,757.472778 733.171936,718.164612 773.993530,672.863831 
	C838.989380,600.736206 885.739868,518.238159 914.640625,425.613037 
	C924.355347,394.477844 930.786438,362.559387 935.433411,330.323761 
	C937.659180,314.883514 938.893982,299.270233 938.681702,283.605560 
	C938.662842,282.213837 938.151123,280.645691 939.738037,279.063354 
	C942.192078,286.550781 943.175537,294.082520 944.185364,301.526489 
	C946.421387,318.009338 947.852173,334.590118 947.262207,351.250824 
	C946.373901,376.332336 943.823730,401.223877 939.606689,426.003876 
	C931.128357,475.823853 915.970581,523.533691 894.915222,569.349365 
	C873.193542,616.614929 845.839844,660.511292 813.581604,701.323242 
	C764.721802,763.138977 707.182922,815.561279 641.527161,858.999390 
	C602.789917,884.628113 561.873291,906.189331 517.736389,921.104736 
	C487.290863,931.393311 456.171143,938.861023 424.158691,942.557739 
	C399.436493,945.412720 374.694702,946.333801 349.926025,944.212219 
	C286.875244,938.811462 228.523041,919.850220 176.632126,882.885254 
	C160.151611,871.145203 145.532257,857.281128 132.136200,842.129150 
	C131.725845,841.665100 131.507095,841.031616 131.235687,840.543091 
	C131.978348,839.736511 132.604141,839.941650 133.151550,840.355347 
	C165.052277,864.464539 201.311356,879.008850 239.752075,888.602051 
	C262.052582,894.167297 284.770691,896.680664 307.743256,897.924438 
	C348.247131,900.117249 388.017944,895.706726 427.829041,886.672302 
z"/>
<path fill="#000000" opacity="1.000000" stroke="none" 
	d="
M535.622375,222.811432 
	C519.990723,225.810974 505.125977,230.227600 488.942719,234.572403 
	C491.611481,230.976501 494.570007,230.502136 496.975830,229.292892 
	C536.635864,209.358429 578.387939,195.774323 622.227966,188.841232 
	C643.443909,185.486038 664.859009,183.922516 686.343872,184.745743 
	C718.517944,185.978577 749.844421,191.102249 778.591064,206.788956 
	C818.049988,228.321167 841.237732,261.690430 848.989685,305.605225 
	C852.004456,322.683807 850.663330,340.057037 848.703552,357.320648 
	C846.372498,377.855499 841.751953,397.878693 836.370056,417.767426 
	C836.116577,418.704132 835.797668,419.629852 835.414429,420.519867 
	C835.321594,420.735382 834.851196,420.788269 834.198792,421.068939 
	C834.106873,415.646210 835.439514,410.515564 835.835876,405.319305 
	C837.020569,389.789917 835.868591,374.421265 833.593079,359.112885 
	C830.321960,337.107178 824.545227,315.799438 813.846069,296.149628 
	C793.498291,258.779419 762.358521,234.437500 722.187317,221.302444 
	C702.674255,214.922134 682.603943,211.721161 662.119629,210.141022 
	C634.015381,207.973083 606.376953,211.448822 578.671021,215.081146 
	C564.328003,216.961533 550.220154,220.034149 535.622375,222.811432 
z"/>
<path fill="#000000" opacity="1.000000" stroke="none" 
	d="
M286.508728,624.409668 
	C299.177948,619.193298 311.497192,614.133423 323.809937,609.057922 
	C326.644165,607.889587 329.314880,607.362854 332.444824,608.620850 
	C365.799561,622.026978 399.208313,635.298950 432.595886,648.623596 
	C433.653107,649.045532 434.642548,649.637451 437.176025,650.909607 
	C411.282745,661.523315 387.388916,673.593750 361.621429,681.568787 
	C366.842743,676.071899 373.280273,672.265991 379.391602,668.041931 
	C385.600067,663.750854 392.476074,660.415955 398.185486,655.745667 
	C397.393707,653.103760 395.498413,652.987305 394.039612,652.400818 
	C373.353271,644.084106 352.640778,635.832397 331.952576,627.520325 
	C330.009338,626.739624 328.237793,626.469543 326.201965,627.305176 
	C304.184174,636.342468 282.140991,645.317932 260.110626,654.324707 
	C259.827637,654.440308 259.620605,654.741577 258.800568,655.467468 
	C271.468414,663.990784 284.958252,671.057922 296.127563,681.541687 
	C271.190308,673.047974 247.442444,661.876343 223.404968,651.395142 
	C223.345840,650.924438 223.286713,650.453674 223.227570,649.982910 
	C244.203842,641.508789 265.180115,633.034668 286.508728,624.409668 
z"/>
<path fill="#000000" opacity="1.000000" stroke="none" 
	d="
M432.885071,725.132324 
	C398.388519,732.074280 367.939697,745.748596 344.045074,771.950500 
	C338.643433,777.873779 334.351837,784.557312 329.951355,791.311218 
	C329.251495,790.915894 328.686554,790.792847 328.480530,790.452576 
	C309.224243,758.645569 281.189575,738.816528 245.426971,729.514771 
	C227.398727,724.825684 209.152679,721.433899 190.528061,720.285217 
	C190.059647,720.256287 189.606262,719.983337 188.236282,719.509888 
	C194.277313,715.925842 200.427505,714.987488 206.410400,713.695496 
	C225.555023,709.561340 243.675552,714.116272 261.430267,720.706238 
	C285.683960,729.708496 307.198364,742.906372 324.085510,762.902283 
	C325.264893,764.298767 326.317444,765.803101 327.415649,767.267273 
	C328.390656,768.567261 329.346985,769.881165 330.606232,771.588501 
	C333.925812,767.517334 336.723785,763.605347 339.999268,760.145508 
	C364.000458,734.793762 393.261139,718.971924 427.594482,712.859863 
	C441.523865,710.380127 461.454742,712.955261 471.962341,717.895508 
	C458.666290,721.028442 445.726776,721.767822 432.885071,725.132324 
z"/>
<path fill="#000000" opacity="1.000000" stroke="none" 
	d="
M507.345947,734.434814 
	C514.317017,736.175110 520.802612,737.991577 526.945557,742.886108 
	C521.004761,746.717590 516.406006,750.922119 512.698425,756.068848 
	C511.192535,758.159241 509.049164,756.965454 507.181671,756.381226 
	C494.810944,752.511047 482.429871,748.833008 469.514404,746.991577 
	C451.049225,744.359009 432.721039,744.983765 414.380859,747.855530 
	C400.599335,750.013611 387.184540,753.647461 373.602844,758.381042 
	C377.495850,750.132324 407.460846,738.078857 437.683838,732.469910 
	C460.862000,728.168274 483.992920,728.664246 507.345947,734.434814 
z"/>
<path fill="#000000" opacity="1.000000" stroke="none" 
	d="
M657.604858,658.298523 
	C655.834717,654.692688 654.194946,651.438416 652.555115,648.184204 
	C652.179993,648.265930 651.804932,648.347656 651.429810,648.429321 
	C652.474609,654.409546 653.417908,660.409729 654.592346,666.364380 
	C655.798340,672.478882 653.370300,676.059631 647.270264,677.011292 
	C645.142029,677.343323 644.352905,675.834717 643.246277,674.654724 
	C638.771240,669.882996 635.191345,664.255798 629.223267,660.685303 
	C631.912170,666.126526 634.429321,671.662048 637.349731,676.976074 
	C639.331421,680.582092 637.758911,682.053894 634.646973,683.293335 
	C631.893921,684.389832 629.562012,686.292664 627.549805,681.807190 
	C622.195557,669.872559 616.369080,658.149780 610.511780,645.885071 
	C614.698792,643.902283 618.398804,642.112976 622.131897,640.395508 
	C624.615845,639.252625 625.801331,641.351379 627.101257,642.693542 
	C632.276001,648.036438 637.345337,653.481445 643.249512,659.731018 
	C642.269226,651.227295 641.694092,643.863708 640.466187,636.610718 
	C639.872681,633.105286 640.904968,631.393616 643.909302,630.042175 
	C653.555542,625.703247 651.497375,623.954651 656.841187,634.119202 
	C661.175781,642.364258 665.574707,650.575439 669.909851,658.820251 
	C670.741272,660.401611 671.408813,662.069092 672.048401,663.470032 
	C671.607239,664.124268 671.485840,664.496704 671.231567,664.653442 
	C662.867798,669.806152 662.865906,669.803101 657.604858,658.298523 
z"/>
<path fill="#000000" opacity="1.000000" stroke="none" 
	d="
M338.419312,709.925781 
	C327.909760,713.261597 318.596252,710.967285 313.120026,703.954346 
	C307.786774,697.124512 306.902832,686.238831 311.095337,679.021851 
	C315.426758,671.565796 323.914368,667.541626 332.769287,668.745667 
	C341.688080,669.958374 348.445770,676.383545 350.740662,685.832764 
	C352.659393,693.733276 349.134064,702.889709 342.242340,707.765686 
	C341.161530,708.530273 339.940582,709.096863 338.419312,709.925781 
z"/>
<path fill="#000000" opacity="1.000000" stroke="none" 
	d="
M697.471191,600.292358 
	C697.929565,595.244995 704.467102,590.910583 708.765625,592.600098 
	C716.454163,595.622131 724.057068,598.862244 733.001465,602.549377 
	C727.876587,594.773071 723.530151,588.177917 719.128296,581.498718 
	C721.645325,578.559204 724.670227,576.876038 727.502258,575.028931 
	C729.821289,575.754272 730.484131,577.795715 731.550476,579.406433 
	C737.337524,588.147095 743.110107,596.898071 748.780151,605.714600 
	C749.909424,607.470703 752.833679,609.479492 750.038147,611.630371 
	C747.010925,613.959534 744.683167,618.520569 739.492432,616.196350 
	C734.485229,613.954468 729.442505,611.789001 724.378235,609.679443 
	C722.759460,609.005188 721.170349,607.840027 718.466309,608.830566 
	C721.372131,615.479004 726.851440,620.333984 729.915466,626.511902 
	C728.840515,629.031311 726.385986,629.726746 724.726746,631.294067 
	C722.250854,633.632812 720.543823,632.933472 718.732361,630.337524 
	C711.781860,620.377563 704.698792,610.510254 697.471191,600.292358 
z"/>
<path fill="#000000" opacity="1.000000" stroke="none" 
	d="
M659.113037,175.368851 
	C652.612305,177.412521 649.308228,174.166397 646.239502,169.458160 
	C642.616943,163.900101 638.399658,158.729660 633.822144,152.557770 
	C634.553650,159.916122 635.002930,166.389648 635.913635,172.797577 
	C636.391479,176.159668 635.403015,177.467941 632.093567,177.402985 
	C630.783875,177.377274 629.461182,177.714096 628.153809,177.940262 
	C626.208252,178.276840 624.947327,177.835495 624.716431,175.562973 
	C623.459167,163.193405 622.135498,150.830612 620.860901,138.462784 
	C620.758301,137.467133 620.941589,136.546066 621.815491,135.787155 
	C624.331909,133.601913 632.862610,134.245453 634.873352,136.928604 
	C639.824280,143.535263 644.708740,150.191711 650.244690,157.672424 
	C649.650452,150.446594 649.531738,144.325211 648.542542,138.347885 
	C647.634460,132.860794 650.162720,131.529114 654.766907,131.628769 
	C656.057739,131.656708 657.349670,131.633026 659.023315,131.633026 
	C660.145752,142.919830 661.239685,153.929398 662.336182,164.938721 
	C662.549561,167.081009 662.661255,169.241165 663.019104,171.359421 
	C663.500366,174.208145 662.340820,175.443863 659.113037,175.368851 
z"/>
<path fill="#000000" opacity="1.000000" stroke="none" 
	d="
M400.465759,256.490051 
	C395.677124,249.116165 391.100861,242.034775 386.303467,234.611237 
	C393.282349,229.578812 399.552460,224.434494 407.200684,221.409500 
	C409.920319,220.333832 412.721771,220.413940 415.520111,221.136444 
	C423.992737,223.323944 433.052643,233.331650 434.225403,242.023849 
	C435.179779,249.097504 432.406128,254.817535 426.876678,259.003479 
	C421.608124,262.991943 415.995056,266.525330 410.262451,270.444061 
	C406.280426,266.115631 403.856781,261.172272 400.465759,256.490051 
M418.567841,252.868362 
	C421.550201,250.830154 423.483948,248.079544 422.220398,244.469757 
	C420.203522,238.707901 417.101959,233.463394 410.729340,231.765457 
	C406.778412,230.712769 403.999115,233.347092 401.326843,236.500473 
	C405.608429,242.879715 409.800415,249.125381 414.082397,255.505188 
	C415.735687,254.539871 416.860779,253.882965 418.567841,252.868362 
z"/>
<path fill="#000000" opacity="1.000000" stroke="none" 
	d="
M608.459229,145.532410 
	C614.031311,151.919357 615.952698,159.141266 615.259155,167.059509 
	C614.822937,172.039520 612.636658,176.287537 608.654297,179.455795 
	C601.206848,185.380737 588.380432,186.670029 581.504639,182.220337 
	C574.036682,177.387451 569.967651,164.440369 572.116272,155.021011 
	C575.154236,141.702454 596.784546,133.777237 608.459229,145.532410 
M598.939575,173.506363 
	C604.882080,168.153397 605.178955,159.835342 599.743042,153.025238 
	C597.174988,149.808075 593.983032,148.562973 590.034180,149.802933 
	C586.177917,151.013779 583.893555,153.711487 583.422058,157.752426 
	C583.010132,161.283386 583.533020,164.727753 584.883301,168.023361 
	C587.505066,174.421722 591.692200,176.242554 598.939575,173.506363 
z"/>
<path fill="#000000" opacity="1.000000" stroke="none" 
	d="
M536.526855,708.479858 
	C538.826599,710.614624 540.873108,712.508606 543.020203,714.495544 
	C535.015076,719.818726 530.197571,719.292664 524.469788,713.023193 
	C522.339600,710.691528 520.238892,708.319214 517.949463,706.150452 
	C515.265015,703.607483 513.495605,704.988464 513.426025,708.014526 
	C513.354736,711.112671 513.776001,714.364990 514.727722,717.308655 
	C515.986877,721.203369 514.349365,722.454163 510.962067,722.917847 
	C507.519745,723.388977 503.817993,724.576599 502.873962,719.357971 
	C501.488434,711.698914 500.080933,704.043884 498.661621,696.390991 
	C497.789154,691.686523 496.877045,686.989380 495.947876,682.105713 
	C499.163910,679.871277 502.825378,679.745422 506.397614,678.970947 
	C508.991638,683.088196 508.232605,688.090393 510.466614,692.607300 
	C516.521912,684.388794 519.601501,672.569519 533.920105,675.058777 
	C530.472839,680.232727 527.288452,685.438232 523.654480,690.308167 
	C521.430786,693.288208 521.957642,695.128296 524.581726,697.374817 
	C528.619690,700.831970 532.389832,704.601807 536.526855,708.479858 
z"/>
<path fill="#000000" opacity="1.000000" stroke="none" 
	d="
M852.999390,259.877563 
	C852.168274,257.848724 851.513428,256.160553 850.584961,253.766998 
	C863.686096,247.804199 876.867920,242.610962 890.823364,237.624008 
	C893.742859,246.252411 897.190002,254.246887 899.071289,262.594299 
	C901.105042,271.618866 890.259827,279.253815 881.478149,275.324280 
	C878.825439,274.137268 877.314270,274.366302 875.565552,276.463745 
	C872.502319,280.137634 869.285156,283.683167 866.048340,287.378540 
	C859.949951,280.083405 859.933472,278.395081 864.868774,272.449402 
	C866.675232,270.273132 868.318298,267.941315 870.284302,265.922424 
	C872.784302,263.355164 873.040649,260.797363 870.818787,257.632843 
	C866.393066,258.008606 862.571045,260.465179 858.536499,262.197418 
	C855.894653,263.331726 854.083191,263.276276 852.999390,259.877563 
M889.570007,260.428009 
	C889.183838,258.832275 888.802063,257.235474 888.410461,255.641098 
	C887.530884,252.060196 885.763428,250.665649 882.011230,252.471512 
	C878.176147,254.317276 877.825439,255.900970 880.761292,261.692352 
	C881.758972,263.660492 883.047485,265.608337 885.507263,265.429199 
	C887.881531,265.256256 889.283081,263.613403 889.570007,260.428009 
z"/>
<path fill="#000000" opacity="1.000000" stroke="none" 
	d="
M697.811890,650.026611 
	C694.426392,651.481934 691.454163,653.100037 688.276123,653.929871 
	C683.010681,655.304749 678.108826,654.056641 675.047363,649.365662 
	C669.433289,640.763428 664.216248,631.902161 658.918457,623.286621 
	C660.291382,620.675415 662.781372,620.129089 664.499451,618.631165 
	C667.384888,616.115479 669.317566,616.965332 671.130493,620.107788 
	C674.953247,626.734253 678.861755,633.322632 683.033813,639.732239 
	C686.184204,644.572266 690.007935,644.787903 694.256348,640.906311 
	C697.266235,638.156250 697.053162,635.104126 695.166809,631.900757 
	C691.369019,625.451416 687.533997,619.024170 683.728333,612.579529 
	C683.061462,611.450256 682.462585,610.280945 681.718689,608.922485 
	C684.386597,606.014404 687.395142,603.900208 691.429810,602.319580 
	C696.496765,611.408508 702.816650,619.608398 706.843750,629.091919 
	C710.412537,637.496338 707.803345,643.148193 697.811890,650.026611 
z"/>
<path fill="#000000" opacity="1.000000" stroke="none" 
	d="
M514.553894,193.616852 
	C518.748779,191.376343 522.273315,189.623398 526.448059,193.660690 
	C529.274414,196.394135 535.687073,194.211853 537.791321,190.680969 
	C539.630737,187.594467 537.710876,184.444717 533.609985,184.451019 
	C529.314697,184.457611 525.023926,185.227478 520.724731,185.304062 
	C513.632324,185.430435 509.686859,182.559998 508.039886,176.507370 
	C506.660126,171.436691 508.987488,166.575226 514.487671,163.223816 
	C519.395081,160.233597 524.563110,158.158096 530.500854,158.632614 
	C532.214783,158.769577 533.836914,159.097855 535.219543,160.028412 
	C537.636780,161.655258 540.846313,163.182587 539.466736,166.850784 
	C538.558716,169.265213 532.035400,170.622787 529.774414,169.037766 
	C527.284485,167.292221 524.946106,167.113297 522.338318,168.505341 
	C520.468323,169.503540 518.728088,170.681381 519.617004,173.112045 
	C520.367554,175.164490 522.167175,175.363602 524.184326,175.083801 
	C528.283691,174.515198 532.395996,173.919189 536.522522,173.695999 
	C541.970398,173.401367 546.286255,175.475800 548.600464,180.705917 
	C551.108459,186.374237 550.286255,192.264908 545.917480,196.315643 
	C539.943909,201.854370 532.636414,204.541504 524.520508,204.243423 
	C518.346313,204.016693 514.266113,199.544128 514.553894,193.616852 
z"/>
<path fill="#000000" opacity="1.000000" stroke="none" 
	d="
M874.125244,398.748047 
	C880.045959,401.515900 885.579834,404.231506 891.212036,406.725250 
	C893.833618,407.886017 894.749695,409.234497 893.503845,412.086945 
	C890.974426,417.878174 888.959351,423.903290 886.256897,429.606781 
	C884.086975,434.186340 880.432678,437.739471 874.951294,437.166565 
	C869.492676,436.596039 864.600220,434.281158 862.548035,428.575500 
	C861.708435,426.241058 860.629089,425.557098 858.152649,425.899780 
	C853.724731,426.512543 849.235962,426.738190 844.788757,425.942017 
	C845.031067,418.467072 847.171021,416.157043 854.038391,415.600677 
	C857.015808,415.359436 859.981689,414.966461 862.948547,414.606750 
	C866.331848,414.196472 867.689209,411.983795 868.095093,408.788574 
	C865.324524,406.440857 861.960876,405.312775 858.729187,404.142456 
	C854.689453,402.679443 853.545959,400.550842 855.656738,396.705566 
	C856.439087,395.280365 856.869202,393.661774 857.648804,391.642242 
	C863.442505,393.486786 868.565857,396.158844 874.125244,398.748047 
M883.264832,416.618805 
	C881.888916,413.486298 878.786865,413.211060 875.943420,411.850281 
	C874.607239,414.478973 873.460632,416.850739 872.209290,419.165863 
	C870.793152,421.786072 871.745361,423.736023 874.034241,425.024017 
	C876.372742,426.339966 878.639404,425.871918 880.067566,423.497040 
	C881.255066,421.522278 882.122131,419.354767 883.264832,416.618805 
z"/>
<path fill="#000000" opacity="1.000000" stroke="none" 
	d="
M832.164612,186.898407 
	C827.191528,183.325607 826.480713,187.827515 824.386292,190.287277 
	C828.125427,194.711517 833.774536,196.212936 837.679138,200.094315 
	C837.059448,202.905151 835.445679,204.923004 833.144897,207.202454 
	C829.440552,204.810684 825.645508,202.498383 822.008301,199.959824 
	C819.846008,198.450668 818.237488,198.247543 816.600098,200.644516 
	C814.971130,203.029068 815.090881,204.856064 817.595398,206.502121 
	C821.209778,208.877548 824.733093,211.391251 828.339600,213.778976 
	C830.458862,215.182068 830.817078,216.862717 829.207886,218.775177 
	C827.756531,220.499969 826.981567,224.255508 823.731812,222.231522 
	C815.433716,217.063385 807.390198,211.486298 798.687866,205.702591 
	C807.506714,193.667725 815.918640,182.188126 824.792908,170.077652 
	C833.775757,176.065369 842.398376,181.812973 851.065369,187.590164 
	C849.588501,191.030563 847.896912,193.397644 845.166809,195.573059 
	C840.972412,192.769638 836.720581,189.927872 832.164612,186.898407 
z"/>
<path fill="#000000" opacity="1.000000" stroke="none" 
	d="
M797.357239,195.605469 
	C789.432922,200.808258 782.664673,197.171631 776.154724,193.408371 
	C771.090698,190.480942 767.188721,186.395569 767.684509,179.825974 
	C767.869812,177.370407 767.839539,174.469101 771.065308,174.034744 
	C774.245728,173.606506 778.562317,177.629379 778.574768,180.560608 
	C778.591675,184.546280 783.384216,189.021301 787.210327,188.469009 
	C789.104187,188.195648 790.630676,187.117661 791.335815,185.235809 
	C792.037292,183.363617 791.042847,181.970093 789.703491,180.889709 
	C786.987610,178.699005 784.138672,176.673279 781.419861,174.486069 
	C775.668884,169.859634 774.042725,164.386917 776.802734,159.242752 
	C779.599304,154.030365 785.854492,151.730392 792.304260,153.458832 
	C796.376953,154.550232 800.090271,156.368515 803.419983,158.906876 
	C806.456909,161.222031 808.605408,164.190247 808.277283,168.215210 
	C808.096863,170.429764 809.565247,174.244522 805.946899,174.173813 
	C803.015137,174.116516 799.096985,173.098145 798.380859,168.991470 
	C797.804199,165.683929 796.017334,163.650162 793.063660,162.330704 
	C791.254517,161.522568 789.607605,161.038681 788.193359,162.943405 
	C786.715637,164.933502 787.800415,166.432190 789.261841,167.675613 
	C791.790466,169.827011 794.520142,171.745636 797.009827,173.938629 
	C805.379517,181.310684 805.531250,187.525146 797.357239,195.605469 
z"/>
<path fill="#000000" opacity="1.000000" stroke="none" 
	d="
M559.356689,702.617676 
	C558.765320,703.433472 558.338318,704.003296 558.246094,704.622864 
	C557.050293,712.658325 556.342712,713.283020 547.594421,713.802917 
	C546.414612,712.791077 546.633362,711.372803 546.725159,710.105835 
	C547.673767,697.024353 548.737854,683.951172 549.645142,670.866943 
	C549.963623,666.273804 554.020996,667.047424 556.587646,665.773010 
	C558.495361,664.825867 560.564026,664.170837 562.348145,666.539734 
	C570.656555,677.570862 579.068970,688.523560 587.414307,699.527100 
	C587.780090,700.009338 587.851990,700.714478 588.055481,701.300537 
	C586.251343,702.958496 583.982422,703.102783 582.069702,704.027649 
	C578.909912,705.555481 576.332642,705.288086 574.751160,701.734314 
	C573.508789,698.942566 571.436096,698.299866 568.626160,699.333496 
	C565.667908,700.421692 562.661804,701.379822 559.356689,702.617676 
M559.744202,680.395264 
	C556.757019,684.091248 558.996765,688.044861 558.419922,692.252625 
	C561.623047,691.888855 564.016968,691.706238 566.188843,689.927124 
	C564.753662,686.393494 562.344116,683.675415 559.744202,680.395264 
z"/>
<path fill="#000000" opacity="1.000000" stroke="none" 
	d="
M378.252563,338.850647 
	C392.101868,335.644592 401.842712,335.914337 410.780579,339.628448 
	C404.770569,355.864838 372.098511,368.278290 349.655273,362.401154 
	C355.650177,350.199921 365.456696,343.070465 378.252563,338.850647 
z"/>
<path fill="#000000" opacity="1.000000" stroke="none" 
	d="
M752.983887,556.948853 
	C764.878113,563.211609 776.442261,569.308228 788.401978,575.613342 
	C786.466248,578.939880 783.847900,580.736084 781.689087,582.926392 
	C780.399536,584.234863 779.017456,584.154968 777.726624,582.978821 
	C774.872803,580.378601 772.569519,581.146851 770.154846,583.774048 
	C768.485229,585.590515 766.370605,587.000671 764.438232,588.572021 
	C762.986694,589.752380 762.704956,591.033813 763.227783,592.940186 
	C765.390625,600.827332 764.580566,602.235046 756.212952,605.713196 
	C754.336609,600.431396 752.491089,595.157715 750.590027,589.904114 
	C747.936096,582.570312 745.226379,575.256714 742.567871,567.924500 
	C740.741943,562.888489 747.104492,555.877563 752.983887,556.948853 
M762.608643,578.099365 
	C764.388245,576.751770 765.106628,575.299316 762.802917,573.827087 
	C760.110291,572.106323 757.350830,570.490051 753.350830,568.055908 
	C755.052856,572.271545 756.167786,575.016663 757.269897,577.766968 
	C758.473267,580.769897 760.172485,580.480286 762.608643,578.099365 
z"/>
<path fill="#000000" opacity="1.000000" stroke="none" 
	d="
M699.440186,142.706970 
	C702.890320,153.467667 706.257935,163.836243 709.618408,174.182709 
	C701.803467,176.960510 698.911865,175.828232 696.591492,169.236588 
	C695.858765,167.155228 694.609436,166.349258 692.525574,166.384445 
	C689.701843,166.432144 686.876770,166.402679 684.052246,166.400314 
	C682.404785,166.398926 681.332153,167.119064 680.490112,168.604523 
	C676.804443,175.106308 675.839905,175.448181 667.465698,173.744125 
	C666.803101,171.802368 667.965576,170.228104 668.645691,168.606003 
	C673.266968,157.584427 678.171326,146.674805 682.506592,135.543030 
	C684.523621,130.363815 688.460266,132.051666 692.004700,131.668457 
	C695.442627,131.296753 696.684692,133.296097 697.423889,136.147049 
	C697.963989,138.230072 698.705811,140.260788 699.440186,142.706970 
M687.531189,148.292862 
	C686.868835,150.163864 686.133240,152.013275 685.572327,153.914200 
	C685.250977,155.003342 684.923462,156.369675 686.155457,157.073395 
	C687.812866,158.020111 689.710571,157.881683 691.443420,157.284103 
	C692.796326,156.817535 692.849487,155.415741 692.477722,154.316269 
	C691.462952,151.315048 691.189087,147.996475 689.036377,144.939316 
	C688.474243,146.201309 688.145325,146.939896 687.531189,148.292862 
z"/>
<path fill="#000000" opacity="1.000000" stroke="none" 
	d="
M835.446045,236.283051 
	C831.401611,230.060638 831.720093,223.905884 834.825134,217.966629 
	C838.969727,210.038849 844.635498,203.725784 854.092224,202.052887 
	C864.677673,200.180298 878.131592,212.102753 877.420898,222.793472 
	C877.202759,226.074356 875.969360,228.820847 873.349121,231.375229 
	C869.694519,228.377594 864.201721,227.583984 866.382812,220.515045 
	C867.741638,216.111023 861.321045,211.378983 856.685303,212.918854 
	C850.057922,215.120224 845.820984,220.013611 843.654297,226.441360 
	C842.126953,230.972580 847.252625,236.525894 852.081421,235.369705 
	C855.421692,234.569916 857.468811,235.789795 859.768250,237.488998 
	C864.114075,240.700409 864.037354,242.262466 859.344116,244.817322 
	C853.641418,247.921677 846.942139,247.066010 841.259460,242.283707 
	C839.233032,240.578461 837.527039,238.492538 835.446045,236.283051 
z"/>
<path fill="#000000" opacity="1.000000" stroke="none" 
	d="
M305.209290,387.311401 
	C317.625458,390.058228 327.697144,395.934784 336.289795,405.038422 
	C313.857605,413.643005 283.878571,408.696045 272.051147,393.130066 
	C282.507782,388.113495 293.166534,385.160919 305.209290,387.311401 
z"/>
<path fill="#000000" opacity="1.000000" stroke="none" 
	d="
M453.274902,353.513306 
	C456.527863,354.799713 459.568970,355.656586 461.967896,357.772125 
	C452.243530,372.516876 418.646484,377.118103 400.372894,366.402557 
	C408.584381,352.089172 432.466736,346.172852 453.274902,353.513306 
z"/>
<path fill="#000000" opacity="1.000000" stroke="none" 
	d="
M827.045776,484.197601 
	C822.494263,482.966949 818.341858,481.847168 814.206970,480.666260 
	C813.772522,480.542206 813.440918,480.057861 813.090759,479.765106 
	C813.423340,477.000824 815.380432,475.235535 816.447083,473.028961 
	C817.435181,470.984924 818.915771,470.432465 820.903381,471.561401 
	C824.512817,473.611481 826.759521,472.131287 828.530151,468.856934 
	C829.712524,466.670471 831.164368,464.630310 832.480652,462.515381 
	C833.319092,461.168121 833.538269,460.015137 832.476074,458.449188 
	C828.269592,452.248077 828.449768,451.384766 834.534790,444.499054 
	C842.949463,455.255737 851.290161,465.943695 859.665649,476.604279 
	C861.500305,478.939362 859.766357,480.616730 858.753540,482.439575 
	C854.321472,490.415771 854.316345,490.412842 845.372314,488.374695 
	C839.398193,487.013336 833.424133,485.652130 827.045776,484.197601 
M837.430908,471.867340 
	C835.987549,474.039520 836.443176,475.565826 839.018311,476.229858 
	C841.833740,476.955902 844.674133,477.585205 848.308594,478.447662 
	C845.835083,474.362030 844.181030,470.697327 840.766785,468.468414 
	C839.069214,468.953918 838.644287,470.327423 837.430908,471.867340 
z"/>
<path fill="#000000" opacity="1.000000" stroke="none" 
	d="
M883.374390,298.834106 
	C881.104858,298.971466 879.165588,299.260101 876.991638,299.583679 
	C876.967712,305.850281 879.471558,311.443085 879.771423,317.279663 
	C878.805420,318.615936 877.281006,318.174713 876.092529,318.658142 
	C872.328430,320.189270 870.581482,318.653351 869.898132,314.907837 
	C868.649780,308.064880 867.150574,301.267548 865.917358,294.422058 
	C865.589355,292.601624 864.889160,290.240417 867.932434,289.716278 
	C880.775757,287.504089 893.620911,285.302856 906.780273,283.043549 
	C908.635254,291.735931 910.415100,299.795227 912.056885,307.882507 
	C912.943481,312.250275 909.364502,311.960632 906.767883,312.737671 
	C903.926514,313.587921 902.936523,312.533722 902.588379,309.695251 
	C902.029297,305.137268 901.036560,300.632477 900.243591,296.197815 
	C893.588562,296.078552 893.509155,296.134979 894.315979,301.903931 
	C894.772522,305.168549 895.343628,308.417175 895.852295,311.605347 
	C889.515869,315.421906 887.475464,314.603577 886.060913,307.964325 
	C885.416382,304.939453 885.996704,301.580048 883.374390,298.834106 
z"/>
<path fill="#000000" opacity="1.000000" stroke="none" 
	d="
M899.906250,385.300354 
	C886.754272,386.775848 874.024719,388.120331 861.214417,388.456909 
	C860.587036,388.473389 859.953369,388.250061 858.948181,388.072083 
	C859.678406,385.347382 860.312744,382.808655 861.045532,380.298706 
	C861.674316,378.144867 863.350098,377.587555 865.357788,377.823303 
	C868.309021,378.169861 869.557861,376.514008 870.227295,373.971008 
	C870.692078,372.205627 871.173645,370.420624 871.895996,368.751892 
	C873.520935,364.998260 873.559387,362.113800 869.374207,359.694275 
	C863.761414,356.449463 868.816467,352.487671 868.494995,348.536835 
	C872.419067,349.053375 874.488892,351.397797 876.893555,352.996490 
	C885.488708,358.710907 893.925781,364.663116 902.521973,370.375977 
	C904.859253,371.929291 905.794006,373.556030 904.385315,376.115173 
	C902.772278,379.045471 903.952271,383.211884 899.906250,385.300354 
M885.448486,376.679993 
	C887.463257,376.404572 889.727173,377.257843 891.662842,375.241486 
	C888.689087,372.527893 885.810669,369.954071 881.863281,368.626770 
	C880.302429,371.243805 879.224426,373.702576 879.575317,376.543121 
	C881.408203,377.475250 883.041870,376.585754 885.448486,376.679993 
z"/>
<path fill="#000000" opacity="1.000000" stroke="none" 
	d="
M453.481323,210.519897 
	C449.569977,206.924942 445.909363,203.579407 442.339600,200.316895 
	C444.656097,196.721680 447.508759,195.574600 449.963776,193.955811 
	C452.071930,192.565720 453.317841,194.220062 454.600769,195.524445 
	C460.636078,201.660782 466.669281,207.799225 473.441101,214.687485 
	C472.024353,207.062012 470.661285,200.608795 469.655090,194.100418 
	C468.183472,184.581650 468.292542,184.564789 477.973907,180.162735 
	C480.361084,183.261887 479.506836,187.148407 480.100220,190.574142 
	C481.794922,200.358353 482.754456,210.267456 484.205811,220.097504 
	C484.766663,223.895966 483.427216,226.088318 479.890808,227.323624 
	C476.714539,228.433105 474.138550,231.555756 470.431000,227.217148 
	C465.374023,221.299301 459.344543,216.212448 453.481323,210.519897 
z"/>
<path fill="#000000" opacity="1.000000" stroke="none" 
	d="
M367.132019,401.678711 
	C351.488190,401.712982 339.007935,395.744904 328.942810,384.504364 
	C327.753143,383.175812 326.314026,381.941650 326.068634,379.988037 
	C344.992889,371.895691 371.268097,379.613373 384.020416,399.444733 
	C378.759369,402.238037 372.997101,400.920074 367.132019,401.678711 
z"/>
<path fill="#000000" opacity="1.000000" stroke="none" 
	d="
M417.962585,388.990295 
	C423.801727,394.514130 426.974091,401.008087 428.610809,408.462067 
	C411.182953,412.040924 388.182220,395.718048 385.661560,377.706360 
	C397.740173,377.869049 408.266998,381.574432 417.962585,388.990295 
z"/>
<path fill="#000000" opacity="1.000000" stroke="none" 
	d="
M598.665527,680.366394 
	C599.461060,682.388611 600.104553,684.067871 600.894531,686.129517 
	C605.960022,684.406799 610.851685,682.882568 615.632812,681.067261 
	C618.719055,679.895508 620.248474,680.787415 621.031006,683.884766 
	C621.717896,686.603516 623.272949,689.204529 619.006042,690.601257 
	C611.443481,693.076660 603.977295,695.849060 596.492310,698.556885 
	C594.539062,699.263611 592.884827,699.438354 592.085266,697.060913 
	C587.918640,684.671509 583.772217,672.275330 579.587830,659.789246 
	C583.088440,657.585144 586.288818,656.008728 590.426208,654.949646 
	C593.163696,663.437134 595.838562,671.730347 598.665527,680.366394 
z"/>
<path fill="#000000" opacity="1.000000" stroke="none" 
	d="
M824.721802,513.988892 
	C817.909729,508.956177 811.475281,503.920441 804.654846,499.477173 
	C798.868408,495.707581 803.778381,493.195129 805.220947,490.252563 
	C807.136597,486.344879 809.247131,488.359711 811.491333,490.054688 
	C818.359009,495.241577 825.299622,500.331818 832.109985,505.384125 
	C835.478699,503.279114 836.382996,499.685577 839.275024,497.537750 
	C841.953613,497.885498 843.653076,500.112549 846.144348,501.287018 
	C845.034180,505.694519 841.972778,508.644928 839.774658,512.057983 
	C836.353516,517.370483 832.537109,522.430786 829.177612,527.779724 
	C826.809814,531.549805 824.817383,529.882446 822.398987,528.008911 
	C820.095093,526.224182 818.328796,524.908569 820.949890,521.685059 
	C822.656555,519.586060 825.882935,517.900879 824.721802,513.988892 
z"/>
<path fill="#000000" opacity="1.000000" stroke="none" 
	d="
M911.007935,332.668396 
	C910.389648,339.070862 909.574463,345.017944 909.441162,350.980255 
	C909.349182,355.092285 907.943054,356.509521 903.820129,356.442383 
	C899.434814,356.370911 899.511047,353.787476 899.715454,350.794495 
	C899.816650,349.313354 900.014893,347.838806 900.175720,346.298248 
	C898.203552,344.646973 895.867859,344.540527 893.585571,344.403961 
	C886.949463,344.006958 880.312256,343.516022 873.669189,343.388763 
	C869.326233,343.305542 867.836975,341.495453 869.188293,337.470306 
	C869.870422,335.438385 869.043152,333.079620 870.828247,330.984100 
	C878.232056,331.706696 885.835449,332.212646 893.365479,333.250885 
	C900.714783,334.264221 901.024963,334.266632 902.375671,326.986359 
	C903.680908,319.950439 903.801208,319.871368 911.101929,321.433594 
	C911.101929,324.992584 911.101929,328.606049 911.007935,332.668396 
z"/>
<path fill="#000000" opacity="1.000000" stroke="none" 
	d="
M451.956543,426.081787 
	C441.098236,416.823883 435.634064,405.685120 436.915527,391.313629 
	C457.293945,398.223022 468.772736,413.597534 465.652802,434.542450 
	C460.561127,432.624176 456.227356,429.760406 451.956543,426.081787 
z"/>
<path fill="#000000" opacity="1.000000" stroke="none" 
	d="
M716.850464,176.368469 
	C714.302917,176.142227 713.580383,175.028488 713.986389,172.947006 
	C716.449707,160.319168 718.873779,147.683685 721.328552,134.959869 
	C724.564392,133.814041 727.562134,135.350250 730.511108,136.061981 
	C733.090088,136.684372 732.369324,139.265823 732.016113,141.158401 
	C730.621277,148.632065 729.177673,156.098145 727.614197,163.538071 
	C726.953796,166.680649 727.534668,168.474655 731.113037,169.115479 
	C735.804382,169.955566 740.655457,170.205032 745.293701,172.206406 
	C745.880737,175.241364 745.101257,177.998871 743.432495,181.140503 
	C734.762146,179.573410 726.019653,177.993301 716.850464,176.368469 
z"/>
<path fill="#000000" opacity="1.000000" stroke="none" 
	d="
M474.652679,424.073303 
	C474.785126,420.973938 474.290192,418.292419 475.244781,415.741669 
	C488.328339,417.978149 501.120361,439.142731 493.698395,462.580170 
	C483.950287,458.587036 472.792847,442.100616 474.652679,424.073303 
z"/>
<path fill="#000000" opacity="1.000000" stroke="none" 
	d="
M497.129059,417.024658 
	C491.035126,412.349670 486.596619,406.690002 482.024475,400.866272 
	C500.353210,393.968353 522.752075,406.800751 526.634094,426.603546 
	C516.354797,424.441284 506.433594,422.397461 497.129059,417.024658 
z"/>
<path fill="#000000" opacity="1.000000" stroke="none" 
	d="
M524.634277,436.201782 
	C534.566711,442.018646 539.068298,450.699890 540.583801,461.776184 
	C522.343079,458.358490 511.748352,446.650757 503.126526,430.958008 
	C511.273804,430.201263 517.841187,432.885895 524.634277,436.201782 
z"/>
<path fill="#000000" opacity="1.000000" stroke="none" 
	d="
M514.188599,454.882019 
	C522.637146,465.336548 523.778809,477.883118 516.720581,491.457275 
	C503.711395,482.032471 500.457062,468.897949 506.294037,448.959137 
	C509.921448,449.402008 511.535339,452.582123 514.188599,454.882019 
z"/>
<path fill="#000000" opacity="1.000000" stroke="none" 
	d="
M538.275574,502.675659 
	C529.956055,492.525421 530.777588,480.647461 529.679688,468.817108 
	C544.824219,472.387421 554.175781,493.295471 548.274841,509.139282 
	C544.092651,508.552582 541.252502,505.828064 538.275574,502.675659 
z"/>
<path fill="#000000" opacity="1.000000" stroke="none" 
	d="
M440.771576,233.158112 
	C436.507263,226.006516 432.511993,219.116760 428.307037,212.357452 
	C424.624573,206.438110 431.062592,206.517761 433.150330,204.225052 
	C435.411713,201.741684 437.068756,203.567139 438.432983,205.880035 
	C444.832214,216.728958 451.325409,227.522430 457.872162,238.481598 
	C455.562225,241.091019 452.320648,242.117920 449.631104,243.930206 
	C447.685791,245.241043 446.661163,243.729828 445.801270,242.161133 
	C444.207336,239.253510 442.569244,236.370117 440.771576,233.158112 
z"/>
<path fill="#000000" opacity="1.000000" stroke="none" 
	d="
M502.504364,187.647079 
	C505.249237,194.106567 507.459839,200.419815 510.567444,206.255371 
	C512.982788,210.790863 511.777985,212.881470 507.389618,214.245941 
	C505.812866,214.736191 504.276123,215.355072 501.877472,216.219193 
	C496.473846,203.376205 491.109741,190.627090 485.720612,177.818542 
	C488.795776,175.127869 492.104492,173.746277 495.610626,172.241089 
	C498.626221,177.046310 499.955994,182.419174 502.504364,187.647079 
z"/>
<path fill="#000000" opacity="1.000000" stroke="none" 
	d="
M792.539612,552.462036 
	C795.837158,555.506348 798.880981,558.308594 801.822876,561.017090 
	C801.697144,561.606262 801.729675,561.998352 801.550354,562.215332 
	C794.159363,571.161743 794.150085,571.166748 785.866821,562.916077 
	C780.095520,557.167542 774.539001,551.184692 768.515137,545.715454 
	C764.926636,542.457397 764.175842,539.866150 768.103760,536.555725 
	C769.341064,535.512878 770.268005,534.101685 771.840393,532.273926 
	C778.826782,539.089661 785.556274,545.654846 792.539612,552.462036 
z"/>
<path fill="#000000" opacity="1.000000" stroke="none" 
	d="
M568.087402,183.068756 
	C568.795349,185.681625 569.375549,187.916763 569.948792,190.125061 
	C569.381042,190.591553 569.058472,191.015198 568.634888,191.181290 
	C559.443237,194.784988 559.397400,194.758606 556.641479,185.273911 
	C554.049561,176.353806 551.645752,167.372665 548.777039,158.542526 
	C547.637085,155.033615 547.885010,152.874191 551.568848,151.559586 
	C553.580566,150.841705 555.475891,149.797516 558.141113,148.570084 
	C561.484314,160.188080 564.722046,171.439545 568.087402,183.068756 
z"/>
<path fill="#000000" opacity="1.000000" stroke="none" 
	d="
M858.042480,438.881897 
	C862.495056,441.522461 866.474976,444.324524 870.822998,446.327667 
	C875.288818,448.385071 875.837280,450.947906 873.378723,454.813171 
	C872.596008,456.043762 872.046387,457.422577 871.315186,458.883179 
	C867.971436,458.573608 865.697449,456.452850 863.136658,455.111572 
	C855.787415,451.262115 848.671204,446.949005 841.216553,443.326263 
	C836.828247,441.193726 836.079102,438.848267 838.767212,434.970154 
	C839.789978,433.494568 840.509277,431.808594 841.640991,429.710144 
	C847.604370,431.968781 852.361084,435.923798 858.042480,438.881897 
z"/>
</svg>